<svg id="Layer_1" data-name="Layer 1" xmlns="http://www.w3.org/2000/svg" viewBox="0 0 1218.78 1746.22"><defs><style>.cls-1{fill:#231f20;}</style></defs><title>pngverzija</title><path class="cls-1" d="M1243.26,1708.05c-1.32-113.29-35.54-111.36-35.54-111.36s-36.86-5.58-36.39,111.36S1207.71,1820,1207.71,1820,1244.58,1821.34,1243.26,1708.05Z" transform="translate(-408.26 -95.88)"/><path class="cls-1" d="M570.32,1434.72c83,0,151.46-32.67,162.05-76.82V1146.17c-14.5-90.47-131.93-198.72-131.93-198.72L408.26,757.08v602.55C418.84,1402,487.29,1434.72,570.32,1434.72Z" transform="translate(-408.26 -95.88)"/><path class="cls-1" d="M540.2,551.27,732.38,742.81V172.7c-10.59-44.15-79-76.82-162.05-76.82s-151.49,32.69-162.06,76.86v182C422.72,445,540.2,551.27,540.2,551.27Z" transform="translate(-408.26 -95.88)"/><path class="cls-1" d="M1141.82,1707c-.5-86.93,22.06-120.24,40.7-132.95H739.31a737.3,737.3,0,0,1-78.62,4.15H467q-30.06-.66-58.78-3.66V1842.1H1185.7C1166.95,1830.61,1142.34,1798.16,1141.82,1707Z" transform="translate(-408.26 -95.88)"/><path class="cls-1" d="M907.52,1477.76l.15.1c2,1.19,4.17,2.43,6.88,2.48,2.95.05,5.1-1.35,8.46-3.61a42.75,42.75,0,0,0,7-6c.59-.59,1.08-1.16,1.61-1.74a160.43,160.43,0,0,1-11.13-23q-9.85-24.87-15.5-57.91a417,417,0,0,1-5.64-70.37,428.31,428.31,0,0,1,5.64-71.32q5.66-33.5,15.5-58.18t23.15-39q13.31-14.37,28.63-14.36c7,0,13.62,2.28,20,6.75-.57-7.89-1.14-13.91-1.51-17.56-1.11-11.13-2.46-21.73-3.94-31.89a39.38,39.38,0,0,0-14.43-2.79q-18.73,0-35.36,17.94t-29,48.77q-12.42,30.86-19.59,72.68A528.63,528.63,0,0,0,881.2,1318a521.07,521.07,0,0,0,7.16,88.47Q895.4,1447.29,907.52,1477.76Z" transform="translate(-408.26 -95.88)"/><path class="cls-1" d="M1061,1266a729.1,729.1,0,0,1-10.34,80.95c-4.23,22.84-9.31,44.14-14.82,63.8-1.68,5.8-3.63,11.88-5.83,18.14-1.83,6-3.79,11.74-5.91,17.15a158.94,158.94,0,0,1-11.15,23.12c-4.79,9.56-9.77,18.36-14.75,26.42-.78,1.16-1.91,2.84-3.29,4.85-.41.61-3.18,4.65-4.36,6.32a96.76,96.76,0,0,1-9,10.68,114.65,114.65,0,0,1-14.07,12.64,107.55,107.55,0,0,1-15.64,9.75,40.47,40.47,0,0,0,20.44,5.78c7.38,0,14.57-2.33,21.49-6.95s13.52-11.1,19.7-19.38a165.89,165.89,0,0,0,17.21-29.69A295.73,295.73,0,0,0,1045,1451.3l.19,64.62a50.66,50.66,0,0,0,2.5,17c1.66,4.64,3.75,6.95,6.3,6.95s4.91-2.31,6.7-6.92,2.66-10.29,2.66-17V1315.58Q1063.23,1289.87,1061,1266Z" transform="translate(-408.26 -95.88)"/><path class="cls-1" d="M1120.1,1517.36a42.53,42.53,0,0,1-2.66,16c-1.79,4.32-4,6.46-6.51,6.46s-4.69-2.14-6.49-6.46-2.69-9.66-2.69-16V949.65q0-9.61,2.69-16c1.79-4.32,3.94-6.46,6.49-6.46s4.72,2.14,6.51,6.46,2.66,9.63,2.66,16Z" transform="translate(-408.26 -95.88)"/><path class="cls-1" d="M1176.46,1153.08q8.43-28.74,20.65-46.68t26.57-17.94q17,0,30.48,20.82t21.3,54.33a219.47,219.47,0,0,1,10.72-30.64,119.49,119.49,0,0,1,13.46-23.69A67.14,67.14,0,0,1,1315,1094a28.79,28.79,0,0,1,16.45-5.51q12.42,0,23.23,11.48t18.73,31.59q7.94,20.11,12.7,47.17a357.1,357.1,0,0,1,5.16,57.67,28.72,28.72,0,0,1,.19,3.83v276.68a45,45,0,0,1-2.58,16.28c-1.71,4.48-3.85,6.7-6.4,6.7s-4.56-2.23-6.4-6.7a42.54,42.54,0,0,1-2.77-16.28V1239.73a221.9,221.9,0,0,0-3.64-41.66,162,162,0,0,0-9.63-33.27q-6-14.13-13.87-22t-16.45-7.9c-6,0-11.75,3-17.29,8.85s-10.42,13.81-14.63,23.69a173.18,173.18,0,0,0-10.12,34.47,214.8,214.8,0,0,0-3.83,41.17v273.8a45,45,0,0,1-2.58,16.28c-1.71,4.48-3.85,6.7-6.4,6.7s-4.69-2.23-6.49-6.7a43.69,43.69,0,0,1-2.69-16.28V1240.68a233.57,233.57,0,0,0-3.53-41.9,161.74,161.74,0,0,0-9.47-33.49q-5.9-14.13-13.76-22.25t-16.42-8.14q-9.2,0-17.5,8.6t-14.63,23.45a173.18,173.18,0,0,0-10.12,34.47,215,215,0,0,0-3.83,41.17v273.83a46.93,46.93,0,0,1-2.58,16.5c-1.71,4.64-3.85,6.95-6.4,6.95s-4.69-2.31-6.49-6.95a45.61,45.61,0,0,1-2.69-16.5v-404.5a43.89,43.89,0,0,1,2.69-16.28c1.79-4.45,3.94-6.7,6.49-6.7s4.69,2.25,6.4,6.7a45.16,45.16,0,0,1,2.58,16.28Z" transform="translate(-408.26 -95.88)"/><path class="cls-1" d="M1427.9,964.46q3.34-8.59,8.3-8.6,5.17,0,8.6,8.6t3.45,21.55q0,12-3.45,20.6t-8.6,8.6q-5,0-8.3-8.6t-3.34-20.6Q1424.56,973.11,1427.9,964.46Zm17.48,551.94a46.93,46.93,0,0,1-2.58,16.5c-1.71,4.64-3.85,6.95-6.4,6.95s-4.69-2.31-6.49-6.95a45.61,45.61,0,0,1-2.69-16.5v-404.5a43.89,43.89,0,0,1,2.69-16.28c1.79-4.45,3.94-6.7,6.49-6.7s4.69,2.25,6.4,6.7a45.16,45.16,0,0,1,2.58,16.28Z" transform="translate(-408.26 -95.88)"/><path class="cls-1" d="M1491.05,1314.88a19.27,19.27,0,0,1-.38,2.39l.19.95.19.49a422.85,422.85,0,0,0,5.35,68.44q5.37,32.57,14.71,57.21t22.28,39.49q12.9,14.86,27.82,14.84,13.76.49,26-10.53t22.55-34.47a53.55,53.55,0,0,1,3-5.51,12.3,12.3,0,0,1,3.42-3.83,3.39,3.39,0,0,1,3.83,0c1.36.81,2.71,2.8,4.13,6q3.05,6.68,3,16.5a50.26,50.26,0,0,1-3.34,18q-11.32,28.7-27.44,44.51t-33.54,15.79q-18.73,0-35.06-17.48T1499,1479.55q-12.33-30.65-19.4-71.35a513.77,513.77,0,0,1-7.06-87.6,24.37,24.37,0,0,1,.19-3.34,11.79,11.79,0,0,1-.19-2.39,522.9,522.9,0,0,1,7.06-88.09q7.08-41.16,19.4-72t28.69-48.82q16.32-18,35.06-18,17.38,0,33.54,15.79t27.44,44.53a50.79,50.79,0,0,1,3.34,18.18q.08,10.05-3,16.74c-1.41,3.2-2.77,5.18-4.13,6a3.39,3.39,0,0,1-3.83,0,12.3,12.3,0,0,1-3.42-3.83,56.53,56.53,0,0,1-3-5.51q-10.1-23-22.44-34.47t-26.08-11q-14.74,0-27.55,14.84t-22.25,39.49q-9.44,24.67-14.9,57.45A418.08,418.08,0,0,0,1491.05,1314.88Z" transform="translate(-408.26 -95.88)"/><path class="cls-1" d="M1569.4,1021.43a15.43,15.43,0,0,1-2.66,4.8.6.6,0,0,0-.57.46H1566c-1,1-1.93,1.28-2.69,1a1.33,1.33,0,0,1-1.14-.49c-.27,0-.65-.33-1.14-.95a11.85,11.85,0,0,1-2.88-4.8l-44.53-112.49a34.63,34.63,0,0,1-2.39-14.36,38.51,38.51,0,0,1,2.28-12.67c1.36-3.37,3-5.26,5.07-5.75s4,1.52,5.73,6l39.38,100.55,39.57-100.55c1.79-4.45,3.69-6.46,5.73-6s3.75,2.39,5.07,5.75a38.51,38.51,0,0,1,2.28,12.67,34.63,34.63,0,0,1-2.39,14.36Z" transform="translate(-408.26 -95.88)"/><path class="cls-1" d="M1179.32,1722.69a215.32,215.32,0,0,0,4.13,36.28,145.09,145.09,0,0,0,9,29.26q5.54,12.46,12.65,19.62t15.31,7.19q9.48,0,17.72-9.5t13.33-25.7q2.65-5.41,5.29-3.26c.9.71,1.68,2.33,2.33,4.86a27.82,27.82,0,0,1,1.28,8.55,22,22,0,0,1-1.93,9.34q-6.43,17.59-16,29.12t-22,11.51c-7.3,0-14.11-3.39-20.49-10.15s-12-16-16.74-27.63-8.55-25.32-11.32-41a306.76,306.76,0,0,1,0-100.6q4.15-23.41,11.32-40.9t16.74-27.63c6.38-6.76,13.19-10.15,20.49-10.15s14,3.34,20.44,10,12,15.85,16.74,27.49,8.52,25.29,11.32,40.9a283.37,283.37,0,0,1,4.21,50,23.92,23.92,0,0,1-1.44,8.93c-.95,2.36-2.17,3.53-3.64,3.53Zm83-21.93a216.44,216.44,0,0,0-4-37,145.32,145.32,0,0,0-9.09-29.93q-5.66-12.74-13-20t-15.63-7.33c-5.51,0-10.75,2.44-15.63,7.33s-9.2,11.59-12.86,20.16a152,152,0,0,0-9,30.07,215.33,215.33,0,0,0-4,36.69Z" transform="translate(-408.26 -95.88)"/><path class="cls-1" d="M1286.76,1660.54q4.15-23.69,11.32-41.17t16.8-27.63q9.61-10.14,20.44-10.15c7.3,0,14.11,3.39,20.49,10.15s11.94,16,16.69,27.63,8.49,25.37,11.26,41.17a292.47,292.47,0,0,1,4.15,50.5,288.6,288.6,0,0,1-4.15,50.1q-4.15,23.57-11.26,41t-16.69,27.63c-6.38,6.76-13.19,10.15-20.49,10.15s-14-3.39-20.44-10.15-12-16-16.8-27.63-8.55-25.32-11.32-41a288.6,288.6,0,0,1-4.15-50.1A292.47,292.47,0,0,1,1286.76,1660.54Zm9.72,90.32a161.49,161.49,0,0,0,9,32.76q5.7,14.08,13.35,22.34t16.53,8.28q9,0,16.64-8.28t13.3-22.34a163.41,163.41,0,0,0,8.9-32.76,231.85,231.85,0,0,0,3.26-39.81,238.56,238.56,0,0,0-3.26-40.36,158.1,158.1,0,0,0-9-32.89q-5.7-14-13.35-22.09t-16.53-8.11q-8.83,0-16.53,8.11t-13.35,22.09a158.1,158.1,0,0,0-9,32.89,238.56,238.56,0,0,0-3.26,40.36A231.85,231.85,0,0,0,1296.48,1750.86Z" transform="translate(-408.26 -95.88)"/><path class="cls-1" d="M1414.31,1636a172.32,172.32,0,0,1,7.3-22.06,96.94,96.94,0,0,1,8.87-17.07,44.27,44.27,0,0,1,10.12-11.1,18.22,18.22,0,0,1,10.94-3.94q9.4,0,17,8.41t12.92,24.23q5.37,15.84,8.28,38.73a417.71,417.71,0,0,1,3,51.56V1824a24.94,24.94,0,0,1-1.49,9.2c-1,2.55-2.28,3.8-3.91,3.8-1.47,0-2.69-1.25-3.64-3.8a25.59,25.59,0,0,1-1.44-9.2V1706.16q0-48.2-8.47-73.38t-23.37-25.18q-7.49,0-14.08,7.6c-4.37,5-8.2,11.94-11.43,20.71a163.89,163.89,0,0,0-7.73,30.86,238.87,238.87,0,0,0-2.88,38.32v118.35a26,26,0,0,1-1.49,9.34c-1,2.63-2.23,3.94-3.69,3.94s-2.74-1.3-3.77-3.94a25.38,25.38,0,0,1-1.55-9.34V1594.59a24.34,24.34,0,0,1,1.55-9.2c1-2.52,2.28-3.8,3.77-3.8s2.69,1.28,3.69,3.8a24.94,24.94,0,0,1,1.49,9.2Z" transform="translate(-408.26 -95.88)"/><path class="cls-1" d="M1507.45,1711.18a292.06,292.06,0,0,1,4.15-50.45q4.15-23.69,11.32-41.11t16.8-27.6q9.61-10.14,20.44-10.15t20.38,10q9.57,10,16.69,27.33t11.26,40.57a292.71,292.71,0,0,1,4.26,50v113.36a26.15,26.15,0,0,1-1.55,9.58c-1,2.63-2.33,3.94-3.88,3.94s-2.69-1.3-3.64-3.94a28.21,28.21,0,0,1-1.44-9.61l-.11-36.56a162,162,0,0,1-8.22,21.66,92.77,92.77,0,0,1-10,16.8,45.8,45.8,0,0,1-11.37,11,22.61,22.61,0,0,1-12.43,3.94q-10.83,0-20.44-10.15t-16.8-27.6q-7.16-17.42-11.32-41A288,288,0,0,1,1507.45,1711.18Zm10.5-.14a231.85,231.85,0,0,0,3.26,39.81,161.49,161.49,0,0,0,9,32.76q5.7,14.08,13.41,22.34c5.1,5.51,10.64,8.28,16.53,8.28s11.53-2.77,16.64-8.28,9.58-12.95,13.35-22.34a165.24,165.24,0,0,0,8.9-32.76,231.85,231.85,0,0,0,3.26-39.81,238.56,238.56,0,0,0-3.26-40.36,158.1,158.1,0,0,0-9-32.89q-5.7-14-13.41-22.09c-5.1-5.4-10.64-8.11-16.53-8.11s-11.43,2.71-16.53,8.11-9.61,12.78-13.41,22.09a158.1,158.1,0,0,0-9,32.89A238.56,238.56,0,0,0,1518,1711Z" transform="translate(-408.26 -95.88)"/><rect class="cls-1" x="0.1" y="1478.11" width="489.87" height="161.91"/></svg>